<?xml version="1.0" encoding="UTF-8" standalone="no"?>
<!DOCTYPE svg PUBLIC "-//W3C//DTD SVG 1.1//EN" "http://www.w3.org/Graphics/SVG/1.1/DTD/svg11.dtd">
<svg xmlns="http://www.w3.org/2000/svg" version="1.1" viewBox="0.00 0.00 640.00 360.00">
<g stroke-width="2.00" fill="none" stroke-linecap="butt">
<path stroke="#7d788a" vector-effect="non-scaling-stroke" d="
  M 98.52 155.74
  L 124.30 155.77
  Q 124.86 155.77 124.87 155.21
  L 125.01 123.02"
/>
<path stroke="#857c9d" vector-effect="non-scaling-stroke" d="
  M 125.01 123.02
  L 125.10 99.40
  Q 125.10 98.75 125.75 98.75
  L 147.69 98.75
  Q 148.37 98.75 148.38 99.44
  L 148.50 143.55
  A 0.78 0.78 0.0 0 0 149.29 144.33
  L 162.52 144.21
  Q 162.95 144.21 163.07 143.80
  L 164.93 137.48"
/>
<path stroke="#7d788a" vector-effect="non-scaling-stroke" d="
  M 164.93 137.48
  L 178.46 98.64"
/>
<path stroke="#857c9d" vector-effect="non-scaling-stroke" d="
  M 178.46 98.64
  L 201.42 98.73
  Q 202.03 98.73 201.83 99.31
  L 185.83 144.30
  Q 185.63 144.86 186.22 144.95
  Q 196.17 146.40 200.95 155.15
  A 1.07 1.07 0.0 0 0 201.87 155.70
  L 231.93 155.87
  A 0.72 0.72 0.0 0 1 232.64 156.56
  C 233.14 171.43 232.33 187.00 233.18 201.30
  Q 233.79 211.60 243.98 212.79"
/>
<path stroke="#787672" vector-effect="non-scaling-stroke" d="
  M 243.98 212.79
  Q 247.63 213.21 251.25 213.24
  Q 280.22 213.50 309.19 212.93
  C 317.83 212.75 323.62 209.48 323.69 200.00
  Q 323.79 186.14 323.77 172.23"
/>
<path stroke="#857c9d" vector-effect="non-scaling-stroke" d="
  M 323.77 172.23
  L 323.88 158.00
  A 1.80 1.80 0.0 0 0 321.97 156.19
  Q 312.16 156.82 302.51 156.08
  Q 302.04 156.05 301.37 154.92"
/>
<path stroke="#7d788a" vector-effect="non-scaling-stroke" d="
  M 301.37 154.92
  L 301.25 122.45
  Q 301.24 121.83 300.63 121.82
  L 297.74 121.78"
/>
<path stroke="#857c9d" vector-effect="non-scaling-stroke" d="
  M 297.74 121.78
  L 256.03 121.78
  A 0.72 0.72 0.0 0 0 255.32 122.37
  Q 255.20 123.03 255.54 124.09"
/>
<path stroke="#7d788a" vector-effect="non-scaling-stroke" d="
  M 255.54 124.09
  L 255.52 155.62
  Q 255.52 155.86 255.76 155.86
  L 300.71 155.91"
/>
<path stroke="#857c9d" vector-effect="non-scaling-stroke" d="
  M 300.71 155.91
  Q 301.95 156.55 301.96 157.31
  Q 302.15 167.79 301.94 190.53
  Q 301.93 191.09 301.37 191.09
  L 255.70 190.98
  Q 255.10 190.98 255.09 190.39
  Q 254.95 180.84 254.81 171.27
  C 254.75 167.71 255.38 161.98 254.50 157.11
  Q 254.40 156.50 253.78 156.50
  L 234.32 156.50
  Q 232.25 156.50 232.24 154.42
  Q 232.19 136.09 232.47 116.57
  C 232.60 107.86 234.19 99.10 244.94 98.86
  Q 263.61 98.45 310.99 98.74
  C 322.46 98.81 324.43 107.65 324.47 117.02
  Q 324.56 140.52 324.43 155.38
  Q 324.42 155.75 324.80 155.75
  L 369.89 155.75
  Q 370.27 155.75 370.27 155.36
  L 370.24 122.62
  Q 370.24 121.75 369.37 121.75
  L 340.23 121.75
  Q 339.71 121.75 339.70 121.23
  L 339.61 99.28
  Q 339.60 98.75 340.13 98.75
  L 357.26 98.66"
/>
<path stroke="#7d788a" vector-effect="non-scaling-stroke" d="
  M 357.26 98.66
  L 416.81 98.49"
/>
<path stroke="#857c9d" vector-effect="non-scaling-stroke" d="
  M 416.81 98.49
  L 423.13 98.71
  Q 424.08 98.75 424.07 99.70
  L 423.97 121.05
  A 0.60 0.60 0.0 0 1 423.37 121.64
  L 395.67 121.72"
/>
<path stroke="#7d788a" vector-effect="non-scaling-stroke" d="
  M 395.67 121.72
  Q 394.77 121.32 393.95 121.64
  Q 393.51 121.82 393.51 122.29
  L 393.49 155.25
  Q 393.49 155.77 394.00 155.77
  L 438.52 155.75
  Q 438.87 155.75 438.87 155.40
  L 438.88 100.22"
/>
<path stroke="#857c9d" vector-effect="non-scaling-stroke" d="
  M 438.88 100.22
  L 439.03 99.31
  Q 439.12 98.75 439.68 98.75
  L 461.25 98.75
  Q 462.50 98.75 462.50 100.00
  L 462.49 155.26
  Q 462.49 155.78 463.01 155.77
  L 476.65 155.75
  Q 477.23 155.75 477.23 155.17
  L 477.29 100.24
  Q 477.29 98.77 478.77 98.76
  Q 513.77 98.72 549.71 98.77
  C 561.01 98.79 569.40 99.87 569.44 113.00
  Q 569.51 134.26 569.79 155.51
  Q 569.79 155.98 570.27 156.01
  Q 570.99 156.05 571.52 155.69"
/>
<path stroke="#7d788a" vector-effect="non-scaling-stroke" d="
  M 571.52 155.69
  L 597.27 155.66
  Q 597.64 155.66 597.64 155.29
  L 597.52 85.15
  Q 597.52 84.76 597.13 84.76
  L 102.25 84.76"
/>
<path stroke="#857c9d" vector-effect="non-scaling-stroke" d="
  M 102.25 84.76
  L 97.58 84.83
  Q 97.00 84.84 97.00 85.42
  Q 97.01 120.39 96.95 155.31
  Q 96.95 155.97 98.52 155.74"
/>
<path stroke="#140847" vector-effect="non-scaling-stroke" d="
  M 102.25 84.76
  Q 101.64 85.28 102.08 86.04
  Q 102.32 86.46 102.80 86.49
  Q 109.88 86.89 119.69 86.85
  Q 189.19 86.56 284.06 86.67
  Q 439.28 86.85 594.36 86.82
  A 1.45 1.45 0.0 0 1 595.81 88.27
  L 596.04 151.83
  A 2.42 2.42 0.0 0 1 593.59 154.26
  Q 582.91 154.17 573.19 154.42
  Q 571.91 154.45 571.52 155.69"
/>
<path stroke="#140847" vector-effect="non-scaling-stroke" d="
  M 438.88 100.22
  Q 436.98 100.37 436.98 102.50
  Q 436.97 126.50 437.01 150.50
  Q 437.01 152.11 436.80 153.12
  Q 436.69 153.66 436.14 153.78
  Q 433.85 154.28 431.50 154.26
  Q 413.81 154.13 396.25 154.38
  A 0.82 0.82 0.0 0 1 395.41 153.56
  L 395.67 121.72"
/>
<path stroke="#140847" vector-effect="non-scaling-stroke" d="
  M 416.81 98.49
  Q 417.81 97.65 417.13 96.71
  Q 416.84 96.30 416.35 96.30
  L 350.74 96.35
  A 0.83 0.83 0.0 0 0 350.66 98.00
  L 357.26 98.66"
/>
<path stroke="#140847" vector-effect="non-scaling-stroke" d="
  M 300.71 155.91
  Q 301.51 156.25 301.37 154.92"
/>
<path stroke="#0f062e" vector-effect="non-scaling-stroke" d="
  M 323.77 172.23
  Q 322.26 172.56 322.26 174.07
  Q 322.27 187.12 322.21 200.19
  Q 322.20 202.08 320.78 205.74
  C 319.19 209.87 315.04 211.17 310.99 211.20
  Q 278.75 211.43 244.44 211.04
  A 0.43 0.43 0.0 0 0 244.01 211.46
  L 243.98 212.79"
/>
<path stroke="#140847" vector-effect="non-scaling-stroke" d="
  M 178.46 98.64
  Q 176.92 98.85 176.51 100.26
  Q 175.17 104.83 172.61 110.88
  C 171.26 114.07 170.77 117.63 169.44 121.01
  Q 166.40 128.73 163.65 136.58
  Q 163.48 137.06 163.91 137.33
  Q 164.34 137.60 164.93 137.48"
/>
<path stroke="#140847" vector-effect="non-scaling-stroke" d="
  M 125.01 123.02
  L 124.65 122.50
  A 0.80 0.79 27.7 0 0 123.20 122.95
  L 123.26 151.08
  Q 123.27 154.25 120.10 154.25
  L 99.22 154.25
  Q 98.70 154.25 98.42 154.67
  Q 98.05 155.22 98.52 155.74"
/>
<path stroke="#140847" vector-effect="non-scaling-stroke" d="
  M 297.74 121.78
  Q 296.82 123.19 298.68 123.93
  A 0.88 0.88 0.0 0 1 299.24 124.75
  L 299.39 151.51
  A 2.43 2.42 -0.5 0 1 296.99 153.94
  L 258.46 154.27
  Q 257.19 154.28 257.19 153.01
  C 257.21 144.58 256.84 136.11 257.50 128.23
  Q 257.76 125.14 255.54 124.09"
/>
<path stroke="#7d788a" vector-effect="non-scaling-stroke" d="
  M 546.27 122.26
  A 0.26 0.26 0.0 0 0 546.01 122.00
  L 500.99 122.00
  A 0.26 0.26 0.0 0 0 500.73 122.26
  L 500.73 155.50
  A 0.26 0.26 0.0 0 0 500.99 155.76
  L 546.01 155.76
  A 0.26 0.26 0.0 0 0 546.27 155.50
  L 546.27 122.26"
/>
<path stroke="#857c9d" vector-effect="non-scaling-stroke" d="
  M 147.81 209.96
  L 148.00 167.65
  Q 148.00 167.25 148.40 167.25
  L 181.94 167.45
  A 1.19 1.18 -10.9 0 1 183.02 168.17
  L 201.68 212.54
  A 1.18 1.16 -11.3 0 0 202.76 213.25
  L 223.67 213.25
  Q 224.30 213.25 224.07 212.66
  L 201.95 157.42
  Q 201.74 156.91 201.21 156.75
  Q 199.13 156.14 197.24 156.27
  C 191.41 156.66 184.30 156.21 180.39 156.22
  Q 154.34 156.28 127.28 156.58"
/>
<path stroke="#787672" vector-effect="non-scaling-stroke" d="
  M 127.28 156.58
  L 125.80 156.44
  Q 125.39 156.41 125.41 156.81
  C 126.70 175.12 125.81 194.41 125.62 212.82
  Q 125.61 213.25 126.04 213.25
  L 147.06 213.25
  Q 147.67 213.25 147.69 212.64
  L 147.81 209.96"
/>
<path stroke="#0f062e" vector-effect="non-scaling-stroke" d="
  M 127.28 156.58
  L 127.17 209.37
  A 1.76 1.76 0.0 0 0 128.88 211.13
  L 145.20 211.61
  Q 145.68 211.62 146.05 211.33
  L 147.81 209.96"
/>
<path stroke="#857c9d" vector-effect="non-scaling-stroke" d="
  M 439.70 161.49
  L 439.64 212.63
  Q 439.64 213.12 440.13 213.24
  Q 440.71 213.38 441.53 213.20"
/>
<path stroke="#787672" vector-effect="non-scaling-stroke" d="
  M 441.53 213.20
  L 460.85 213.19
  Q 461.41 213.19 461.41 212.63
  L 461.63 156.92
  A 0.46 0.46 0.0 0 0 461.17 156.46
  L 440.24 156.52
  Q 439.77 156.52 439.77 156.98
  L 439.70 161.49"
/>
<path stroke="#0f062e" vector-effect="non-scaling-stroke" d="
  M 441.53 213.20
  Q 441.35 212.36 441.58 211.88
  Q 441.79 211.47 442.60 211.40
  Q 450.48 210.75 457.51 211.06
  A 1.77 1.77 0.0 0 0 459.36 209.25
  Q 458.72 184.56 459.59 159.86
  A 2.01 2.01 0.0 0 0 457.60 157.78
  L 442.33 157.60
  A 0.96 0.95 -85.5 0 0 441.38 158.42
  L 440.99 161.07
  Q 440.93 161.52 440.47 161.51
  L 439.70 161.49"
/>
<path stroke="#857c9d" vector-effect="non-scaling-stroke" d="
  M 547.24 171.22
  L 546.94 190.28
  Q 546.93 190.80 546.41 190.83
  C 531.38 191.66 516.26 190.88 501.09 191.03
  A 0.85 0.85 0.0 0 1 500.24 190.19
  L 500.21 186.24"
/>
<path stroke="#787672" vector-effect="non-scaling-stroke" d="
  M 500.21 186.24
  L 500.20 157.26
  A 0.73 0.73 0.0 0 0 499.47 156.53
  L 478.21 156.45
  Q 477.86 156.44 477.87 156.80
  Q 478.67 184.74 477.86 212.69
  Q 477.84 213.19 478.34 213.19
  Q 516.70 213.40 555.06 213.15
  C 566.86 213.07 568.88 205.89 568.76 195.58
  Q 568.54 176.20 569.10 156.90
  Q 569.11 156.50 568.71 156.50
  L 548.68 156.50
  A 1.62 1.62 0.0 0 0 547.06 158.15
  L 547.24 171.22"
/>
<path stroke="#0f062e" vector-effect="non-scaling-stroke" d="
  M 500.21 186.24
  Q 499.13 186.41 499.13 186.00
  Q 498.88 174.14 498.67 162.19
  Q 498.66 161.57 498.04 161.47
  Q 496.53 161.23 495.81 159.83
  A 1.03 1.02 77.0 0 0 494.91 159.26
  C 491.99 159.21 489.46 157.99 486.82 157.97
  Q 483.61 157.93 480.54 158.27
  A 0.99 0.98 -3.5 0 0 479.66 159.26
  Q 480.02 179.37 480.01 199.72
  C 480.01 202.75 479.20 207.00 479.58 210.80
  Q 479.64 211.33 480.17 211.34
  C 504.29 211.88 528.42 211.02 552.54 211.36
  C 561.41 211.49 567.17 210.79 567.20 200.55
  Q 567.25 179.65 567.25 160.13
  Q 567.25 157.59 564.71 157.69
  C 559.96 157.90 555.17 158.22 550.61 158.07
  Q 548.06 157.98 548.22 160.47
  Q 548.58 165.97 547.24 171.22"
/>
<path stroke="#787672" vector-effect="non-scaling-stroke" d="
  M 392.7409 156.7608
  A 0.27 0.27 0.0 0 0 392.4705 156.4913
  L 370.9705 156.5288
  A 0.27 0.27 0.0 0 0 370.7010 156.7993
  L 370.7991 212.9992
  A 0.27 0.27 0.0 0 0 371.0695 213.2687
  L 392.5695 213.2312
  A 0.27 0.27 0.0 0 0 392.8390 212.9607
  L 392.7409 156.7608"
/>
<path stroke="#787672" vector-effect="non-scaling-stroke" d="
  M 301.78 254.07
  C 305.77 257.37 314.02 257.99 316.01 252.02
  C 317.99 246.08 309.89 243.75 306.11 241.93
  Q 305.07 241.42 305.00 240.27
  C 304.59 233.84 310.94 235.61 314.08 237.58
  A 0.77 0.77 0.0 0 0 315.21 236.65
  C 313.42 232.13 301.06 232.71 302.67 241.74
  A 1.45 1.42 -75.0 0 0 303.14 242.57
  Q 306.18 245.24 310.02 246.51
  C 319.05 249.52 310.58 258.83 303.32 252.23
  Q 302.80 251.76 302.35 252.29
  L 301.69 253.05
  Q 301.22 253.60 301.78 254.07"
/>
<path stroke="#787672" vector-effect="non-scaling-stroke" d="
  M 346.0697 256.7296
  A 11.49 9.43 90.5 0 0 355.5996 245.3223
  A 11.49 9.43 90.5 0 0 346.2703 233.7504
  A 11.49 9.43 90.5 0 0 336.7404 245.1577
  A 11.49 9.43 90.5 0 0 346.0697 256.7296"
/>
<path stroke="#787672" vector-effect="non-scaling-stroke" d="
  M 382.75 253.64
  L 382.75 246.12
  Q 382.75 245.50 383.37 245.50
  L 391.39 245.50
  Q 392.04 245.50 392.00 244.86
  L 391.97 244.18
  Q 391.95 243.85 391.62 243.84
  L 383.42 243.50
  A 0.66 0.65 90.0 0 1 382.79 242.86
  L 382.65 236.68
  Q 382.64 236.25 383.07 236.25
  L 392.98 236.25
  A 0.68 0.68 0.0 0 0 393.66 235.61
  Q 393.73 234.31 392.23 234.36
  Q 386.91 234.56 381.36 234.40
  Q 380.75 234.39 380.75 234.99
  L 380.75 255.25
  A 1.00 1.00 0.0 0 0 381.75 256.25
  L 393.20 256.25
  Q 393.93 256.25 393.77 255.54
  L 393.64 254.95
  Q 393.51 254.38 392.93 254.38
  L 383.39 254.29
  Q 382.75 254.28 382.75 253.64"
/>
<path stroke="#787672" vector-effect="non-scaling-stroke" d="
  M 325.25 236.75
  L 325.25 255.88
  Q 325.25 256.50 325.88 256.50
  L 327.00 256.50
  Q 327.50 256.50 327.50 256.00
  L 327.50 237.16
  A 0.86 0.86 0.0 0 1 328.34 236.30
  L 334.26 236.15
  A 0.81 0.80 -45.5 0 0 334.25 234.54
  L 318.67 234.48
  Q 318.01 234.48 318.21 235.10
  L 318.39 235.66
  Q 318.57 236.25 319.18 236.25
  L 324.75 236.25
  Q 325.25 236.25 325.25 236.75"
/>
<path stroke="#787672" vector-effect="non-scaling-stroke" d="
  M 363.78 246.41
  L 366.92 246.71
  Q 367.56 246.77 367.87 247.32
  L 372.73 255.70
  Q 373.05 256.25 373.70 256.25
  L 374.96 256.25
  A 0.58 0.58 0.0 0 0 375.45 255.35
  L 370.29 247.24
  Q 370.03 246.83 370.48 246.66
  Q 375.90 244.58 375.05 239.25
  C 374.08 233.09 366.46 234.44 361.10 234.53
  Q 360.70 234.54 360.71 234.94
  L 360.91 255.68
  Q 360.92 256.20 361.42 256.30
  L 362.42 256.50
  A 0.52 0.52 0.0 0 0 363.04 255.99
  L 363.14 246.98
  Q 363.15 246.35 363.78 246.41"
/>
<path stroke="#787672" vector-effect="non-scaling-stroke" d="
  M 145.20 244.43
  C 143.86 244.44 141.11 243.80 139.63 244.63
  A 0.89 0.89 0.0 0 0 140.12 246.29
  C 147.37 245.79 155.93 246.25 161.25 246.25
  Q 224.92 246.25 288.58 246.26
  C 289.45 246.26 291.06 246.79 292.03 246.26
  A 1.22 1.22 0.0 0 0 291.59 243.98
  C 290.84 243.90 290.18 244.31 289.47 244.31
  Q 217.33 244.07 145.20 244.43"
/>
<path stroke="#787672" vector-effect="non-scaling-stroke" d="
  M 398.68 245.11
  C 400.64 245.16 401.98 246.05 403.79 245.99
  C 411.68 245.72 420.89 246.25 427.40 246.25
  Q 491.29 246.25 555.18 246.25
  A 0.63 0.63 0.0 0 0 555.77 245.41
  L 555.52 244.74
  Q 555.32 244.21 554.75 244.21
  L 399.62 244.35
  Q 399.32 244.35 399.08 244.54
  Q 398.87 244.70 398.63 244.79
  A 0.17 0.16 -54.2 0 0 398.68 245.11"
/>
<path stroke="#140847" vector-effect="non-scaling-stroke" d="
  M 544.4566 125.7134
  A 1.69 1.69 0.0 0 0 542.7637 124.0263
  L 504.1437 124.0937
  A 1.69 1.69 0.0 0 0 502.4567 125.7867
  L 502.5034 152.5266
  A 1.69 1.69 0.0 0 0 504.1963 154.2137
  L 542.8163 154.1463
  A 1.69 1.69 0.0 0 0 544.5033 152.4533
  L 544.4566 125.7134"
/>
<path stroke="#0f062e" vector-effect="non-scaling-stroke" d="
  M 385.47 158.11
  A 3.37 3.37 0.0 0 0 383.48 157.70
  C 380.31 158.02 375.19 156.22 372.36 158.66
  A 0.88 0.87 69.7 0 0 372.06 159.32
  L 372.10 211.01
  Q 372.10 211.42 372.51 211.42
  L 389.67 211.70
  A 1.86 1.85 -89.6 0 0 391.56 209.83
  L 391.19 159.07
  A 0.86 0.86 0.0 0 0 389.96 158.30
  Q 387.71 159.36 385.47 158.11"
/>
<path stroke="#787672" vector-effect="non-scaling-stroke" d="
  M 346.1559 254.6398
  A 9.44 6.88 89.6 0 0 352.9698 245.1520
  A 9.44 6.88 89.6 0 0 346.0241 235.7602
  A 9.44 6.88 89.6 0 0 339.2102 245.2480
  A 9.44 6.88 89.6 0 0 346.1559 254.6398"
/>
<path stroke="#787672" vector-effect="non-scaling-stroke" d="
  M 362.99 236.91
  L 363.01 244.05
  A 0.89 0.89 0.0 0 0 363.91 244.93
  L 367.45 244.92
  A 5.31 4.19 -0.2 0 0 372.74 240.71
  L 372.74 240.17
  A 5.31 4.19 -0.2 0 0 367.41 236.00
  L 363.87 236.01
  A 0.89 0.89 0.0 0 0 362.99 236.91"
/>
</g>
<path fill="#eeece0" d="
  M 0.00 0.00
  L 640.00 0.00
  L 640.00 360.00
  L 0.00 360.00
  L 0.00 0.00
  Z
  M 98.52 155.74
  L 124.30 155.77
  Q 124.86 155.77 124.87 155.21
  L 125.01 123.02
  L 125.10 99.40
  Q 125.10 98.75 125.75 98.75
  L 147.69 98.75
  Q 148.37 98.75 148.38 99.44
  L 148.50 143.55
  A 0.78 0.78 0.0 0 0 149.29 144.33
  L 162.52 144.21
  Q 162.95 144.21 163.07 143.80
  L 164.93 137.48
  L 178.46 98.64
  L 201.42 98.73
  Q 202.03 98.73 201.83 99.31
  L 185.83 144.30
  Q 185.63 144.86 186.22 144.95
  Q 196.17 146.40 200.95 155.15
  A 1.07 1.07 0.0 0 0 201.87 155.70
  L 231.93 155.87
  A 0.72 0.72 0.0 0 1 232.64 156.56
  C 233.14 171.43 232.33 187.00 233.18 201.30
  Q 233.79 211.60 243.98 212.79
  Q 247.63 213.21 251.25 213.24
  Q 280.22 213.50 309.19 212.93
  C 317.83 212.75 323.62 209.48 323.69 200.00
  Q 323.79 186.14 323.77 172.23
  L 323.88 158.00
  A 1.80 1.80 0.0 0 0 321.97 156.19
  Q 312.16 156.82 302.51 156.08
  Q 302.04 156.05 301.37 154.92
  L 301.25 122.45
  Q 301.24 121.83 300.63 121.82
  L 297.74 121.78
  L 256.03 121.78
  A 0.72 0.72 0.0 0 0 255.32 122.37
  Q 255.20 123.03 255.54 124.09
  L 255.52 155.62
  Q 255.52 155.86 255.76 155.86
  L 300.71 155.91
  Q 301.95 156.55 301.96 157.31
  Q 302.15 167.79 301.94 190.53
  Q 301.93 191.09 301.37 191.09
  L 255.70 190.98
  Q 255.10 190.98 255.09 190.39
  Q 254.95 180.84 254.81 171.27
  C 254.75 167.71 255.38 161.98 254.50 157.11
  Q 254.40 156.50 253.78 156.50
  L 234.32 156.50
  Q 232.25 156.50 232.24 154.42
  Q 232.19 136.09 232.47 116.57
  C 232.60 107.86 234.19 99.10 244.94 98.86
  Q 263.61 98.45 310.99 98.74
  C 322.46 98.81 324.43 107.65 324.47 117.02
  Q 324.56 140.52 324.43 155.38
  Q 324.42 155.75 324.80 155.75
  L 369.89 155.75
  Q 370.27 155.75 370.27 155.36
  L 370.24 122.62
  Q 370.24 121.75 369.37 121.75
  L 340.23 121.75
  Q 339.71 121.75 339.70 121.23
  L 339.61 99.28
  Q 339.60 98.75 340.13 98.75
  L 357.26 98.66
  L 416.81 98.49
  L 423.13 98.71
  Q 424.08 98.75 424.07 99.70
  L 423.97 121.05
  A 0.60 0.60 0.0 0 1 423.37 121.64
  L 395.67 121.72
  Q 394.77 121.32 393.95 121.64
  Q 393.51 121.82 393.51 122.29
  L 393.49 155.25
  Q 393.49 155.77 394.00 155.77
  L 438.52 155.75
  Q 438.87 155.75 438.87 155.40
  L 438.88 100.22
  L 439.03 99.31
  Q 439.12 98.75 439.68 98.75
  L 461.25 98.75
  Q 462.50 98.75 462.50 100.00
  L 462.49 155.26
  Q 462.49 155.78 463.01 155.77
  L 476.65 155.75
  Q 477.23 155.75 477.23 155.17
  L 477.29 100.24
  Q 477.29 98.77 478.77 98.76
  Q 513.77 98.72 549.71 98.77
  C 561.01 98.79 569.40 99.87 569.44 113.00
  Q 569.51 134.26 569.79 155.51
  Q 569.79 155.98 570.27 156.01
  Q 570.99 156.05 571.52 155.69
  L 597.27 155.66
  Q 597.64 155.66 597.64 155.29
  L 597.52 85.15
  Q 597.52 84.76 597.13 84.76
  L 102.25 84.76
  L 97.58 84.83
  Q 97.00 84.84 97.00 85.42
  Q 97.01 120.39 96.95 155.31
  Q 96.95 155.97 98.52 155.74
  Z
  M 546.27 122.26
  A 0.26 0.26 0.0 0 0 546.01 122.00
  L 500.99 122.00
  A 0.26 0.26 0.0 0 0 500.73 122.26
  L 500.73 155.50
  A 0.26 0.26 0.0 0 0 500.99 155.76
  L 546.01 155.76
  A 0.26 0.26 0.0 0 0 546.27 155.50
  L 546.27 122.26
  Z
  M 147.81 209.96
  L 148.00 167.65
  Q 148.00 167.25 148.40 167.25
  L 181.94 167.45
  A 1.19 1.18 -10.9 0 1 183.02 168.17
  L 201.68 212.54
  A 1.18 1.16 -11.3 0 0 202.76 213.25
  L 223.67 213.25
  Q 224.30 213.25 224.07 212.66
  L 201.95 157.42
  Q 201.74 156.91 201.21 156.75
  Q 199.13 156.14 197.24 156.27
  C 191.41 156.66 184.30 156.21 180.39 156.22
  Q 154.34 156.28 127.28 156.58
  L 125.80 156.44
  Q 125.39 156.41 125.41 156.81
  C 126.70 175.12 125.81 194.41 125.62 212.82
  Q 125.61 213.25 126.04 213.25
  L 147.06 213.25
  Q 147.67 213.25 147.69 212.64
  L 147.81 209.96
  Z
  M 439.70 161.49
  L 439.64 212.63
  Q 439.64 213.12 440.13 213.24
  Q 440.71 213.38 441.53 213.20
  L 460.85 213.19
  Q 461.41 213.19 461.41 212.63
  L 461.63 156.92
  A 0.46 0.46 0.0 0 0 461.17 156.46
  L 440.24 156.52
  Q 439.77 156.52 439.77 156.98
  L 439.70 161.49
  Z
  M 547.24 171.22
  L 546.94 190.28
  Q 546.93 190.80 546.41 190.83
  C 531.38 191.66 516.26 190.88 501.09 191.03
  A 0.85 0.85 0.0 0 1 500.24 190.19
  L 500.21 186.24
  L 500.20 157.26
  A 0.73 0.73 0.0 0 0 499.47 156.53
  L 478.21 156.45
  Q 477.86 156.44 477.87 156.80
  Q 478.67 184.74 477.86 212.69
  Q 477.84 213.19 478.34 213.19
  Q 516.70 213.40 555.06 213.15
  C 566.86 213.07 568.88 205.89 568.76 195.58
  Q 568.54 176.20 569.10 156.90
  Q 569.11 156.50 568.71 156.50
  L 548.68 156.50
  A 1.62 1.62 0.0 0 0 547.06 158.15
  L 547.24 171.22
  Z
  M 392.7409 156.7608
  A 0.27 0.27 0.0 0 0 392.4705 156.4913
  L 370.9705 156.5288
  A 0.27 0.27 0.0 0 0 370.7010 156.7993
  L 370.7991 212.9992
  A 0.27 0.27 0.0 0 0 371.0695 213.2687
  L 392.5695 213.2312
  A 0.27 0.27 0.0 0 0 392.8390 212.9607
  L 392.7409 156.7608
  Z
  M 301.78 254.07
  C 305.77 257.37 314.02 257.99 316.01 252.02
  C 317.99 246.08 309.89 243.75 306.11 241.93
  Q 305.07 241.42 305.00 240.27
  C 304.59 233.84 310.94 235.61 314.08 237.58
  A 0.77 0.77 0.0 0 0 315.21 236.65
  C 313.42 232.13 301.06 232.71 302.67 241.74
  A 1.45 1.42 -75.0 0 0 303.14 242.57
  Q 306.18 245.24 310.02 246.51
  C 319.05 249.52 310.58 258.83 303.32 252.23
  Q 302.80 251.76 302.35 252.29
  L 301.69 253.05
  Q 301.22 253.60 301.78 254.07
  Z
  M 346.0697 256.7296
  A 11.49 9.43 90.5 0 0 355.5996 245.3223
  A 11.49 9.43 90.5 0 0 346.2703 233.7504
  A 11.49 9.43 90.5 0 0 336.7404 245.1577
  A 11.49 9.43 90.5 0 0 346.0697 256.7296
  Z
  M 382.75 253.64
  L 382.75 246.12
  Q 382.75 245.50 383.37 245.50
  L 391.39 245.50
  Q 392.04 245.50 392.00 244.86
  L 391.97 244.18
  Q 391.95 243.85 391.62 243.84
  L 383.42 243.50
  A 0.66 0.65 90.0 0 1 382.79 242.86
  L 382.65 236.68
  Q 382.64 236.25 383.07 236.25
  L 392.98 236.25
  A 0.68 0.68 0.0 0 0 393.66 235.61
  Q 393.73 234.31 392.23 234.36
  Q 386.91 234.56 381.36 234.40
  Q 380.75 234.39 380.75 234.99
  L 380.75 255.25
  A 1.00 1.00 0.0 0 0 381.75 256.25
  L 393.20 256.25
  Q 393.93 256.25 393.77 255.54
  L 393.64 254.95
  Q 393.51 254.38 392.93 254.38
  L 383.39 254.29
  Q 382.75 254.28 382.75 253.64
  Z
  M 325.25 236.75
  L 325.25 255.88
  Q 325.25 256.50 325.88 256.50
  L 327.00 256.50
  Q 327.50 256.50 327.50 256.00
  L 327.50 237.16
  A 0.86 0.86 0.0 0 1 328.34 236.30
  L 334.26 236.15
  A 0.81 0.80 -45.5 0 0 334.25 234.54
  L 318.67 234.48
  Q 318.01 234.48 318.21 235.10
  L 318.39 235.66
  Q 318.57 236.25 319.18 236.25
  L 324.75 236.25
  Q 325.25 236.25 325.25 236.75
  Z
  M 363.78 246.41
  L 366.92 246.71
  Q 367.56 246.77 367.87 247.32
  L 372.73 255.70
  Q 373.05 256.25 373.70 256.25
  L 374.96 256.25
  A 0.58 0.58 0.0 0 0 375.45 255.35
  L 370.29 247.24
  Q 370.03 246.83 370.48 246.66
  Q 375.90 244.58 375.05 239.25
  C 374.08 233.09 366.46 234.44 361.10 234.53
  Q 360.70 234.54 360.71 234.94
  L 360.91 255.68
  Q 360.92 256.20 361.42 256.30
  L 362.42 256.50
  A 0.52 0.52 0.0 0 0 363.04 255.99
  L 363.14 246.98
  Q 363.15 246.35 363.78 246.41
  Z
  M 145.20 244.43
  C 143.86 244.44 141.11 243.80 139.63 244.63
  A 0.89 0.89 0.0 0 0 140.12 246.29
  C 147.37 245.79 155.93 246.25 161.25 246.25
  Q 224.92 246.25 288.58 246.26
  C 289.45 246.26 291.06 246.79 292.03 246.26
  A 1.22 1.22 0.0 0 0 291.59 243.98
  C 290.84 243.90 290.18 244.31 289.47 244.31
  Q 217.33 244.07 145.20 244.43
  Z
  M 398.68 245.11
  C 400.64 245.16 401.98 246.05 403.79 245.99
  C 411.68 245.72 420.89 246.25 427.40 246.25
  Q 491.29 246.25 555.18 246.25
  A 0.63 0.63 0.0 0 0 555.77 245.41
  L 555.52 244.74
  Q 555.32 244.21 554.75 244.21
  L 399.62 244.35
  Q 399.32 244.35 399.08 244.54
  Q 398.87 244.70 398.63 244.79
  A 0.17 0.16 -54.2 0 0 398.68 245.11
  Z"
/>
<path fill="#1c0c59" d="
  M 102.25 84.76
  Q 101.64 85.28 102.08 86.04
  Q 102.32 86.46 102.80 86.49
  Q 109.88 86.89 119.69 86.85
  Q 189.19 86.56 284.06 86.67
  Q 439.28 86.85 594.36 86.82
  A 1.45 1.45 0.0 0 1 595.81 88.27
  L 596.04 151.83
  A 2.42 2.42 0.0 0 1 593.59 154.26
  Q 582.91 154.17 573.19 154.42
  Q 571.91 154.45 571.52 155.69
  Q 570.99 156.05 570.27 156.01
  Q 569.79 155.98 569.79 155.51
  Q 569.51 134.26 569.44 113.00
  C 569.40 99.87 561.01 98.79 549.71 98.77
  Q 513.77 98.72 478.77 98.76
  Q 477.29 98.77 477.29 100.24
  L 477.23 155.17
  Q 477.23 155.75 476.65 155.75
  L 463.01 155.77
  Q 462.49 155.78 462.49 155.26
  L 462.50 100.00
  Q 462.50 98.75 461.25 98.75
  L 439.68 98.75
  Q 439.12 98.75 439.03 99.31
  L 438.88 100.22
  Q 436.98 100.37 436.98 102.50
  Q 436.97 126.50 437.01 150.50
  Q 437.01 152.11 436.80 153.12
  Q 436.69 153.66 436.14 153.78
  Q 433.85 154.28 431.50 154.26
  Q 413.81 154.13 396.25 154.38
  A 0.82 0.82 0.0 0 1 395.41 153.56
  L 395.67 121.72
  L 423.37 121.64
  A 0.60 0.60 0.0 0 0 423.97 121.05
  L 424.07 99.70
  Q 424.08 98.75 423.13 98.71
  L 416.81 98.49
  Q 417.81 97.65 417.13 96.71
  Q 416.84 96.30 416.35 96.30
  L 350.74 96.35
  A 0.83 0.83 0.0 0 0 350.66 98.00
  L 357.26 98.66
  L 340.13 98.75
  Q 339.60 98.75 339.61 99.28
  L 339.70 121.23
  Q 339.71 121.75 340.23 121.75
  L 369.37 121.75
  Q 370.24 121.75 370.24 122.62
  L 370.27 155.36
  Q 370.27 155.75 369.89 155.75
  L 324.80 155.75
  Q 324.42 155.75 324.43 155.38
  Q 324.56 140.52 324.47 117.02
  C 324.43 107.65 322.46 98.81 310.99 98.74
  Q 263.61 98.45 244.94 98.86
  C 234.19 99.10 232.60 107.86 232.47 116.57
  Q 232.19 136.09 232.24 154.42
  Q 232.25 156.50 234.32 156.50
  L 253.78 156.50
  Q 254.40 156.50 254.50 157.11
  C 255.38 161.98 254.75 167.71 254.81 171.27
  Q 254.95 180.84 255.09 190.39
  Q 255.10 190.98 255.70 190.98
  L 301.37 191.09
  Q 301.93 191.09 301.94 190.53
  Q 302.15 167.79 301.96 157.31
  Q 301.95 156.55 300.71 155.91
  Q 301.51 156.25 301.37 154.92
  Q 302.04 156.05 302.51 156.08
  Q 312.16 156.82 321.97 156.19
  A 1.80 1.80 0.0 0 1 323.88 158.00
  L 323.77 172.23
  Q 322.26 172.56 322.26 174.07
  Q 322.27 187.12 322.21 200.19
  Q 322.20 202.08 320.78 205.74
  C 319.19 209.87 315.04 211.17 310.99 211.20
  Q 278.75 211.43 244.44 211.04
  A 0.43 0.43 0.0 0 0 244.01 211.46
  L 243.98 212.79
  Q 233.79 211.60 233.18 201.30
  C 232.33 187.00 233.14 171.43 232.64 156.56
  A 0.72 0.72 0.0 0 0 231.93 155.87
  L 201.87 155.70
  A 1.07 1.07 0.0 0 1 200.95 155.15
  Q 196.17 146.40 186.22 144.95
  Q 185.63 144.86 185.83 144.30
  L 201.83 99.31
  Q 202.03 98.73 201.42 98.73
  L 178.46 98.64
  Q 176.92 98.85 176.51 100.26
  Q 175.17 104.83 172.61 110.88
  C 171.26 114.07 170.77 117.63 169.44 121.01
  Q 166.40 128.73 163.65 136.58
  Q 163.48 137.06 163.91 137.33
  Q 164.34 137.60 164.93 137.48
  L 163.07 143.80
  Q 162.95 144.21 162.52 144.21
  L 149.29 144.33
  A 0.78 0.78 0.0 0 1 148.50 143.55
  L 148.38 99.44
  Q 148.37 98.75 147.69 98.75
  L 125.75 98.75
  Q 125.10 98.75 125.10 99.40
  L 125.01 123.02
  L 124.65 122.50
  A 0.80 0.79 27.7 0 0 123.20 122.95
  L 123.26 151.08
  Q 123.27 154.25 120.10 154.25
  L 99.22 154.25
  Q 98.70 154.25 98.42 154.67
  Q 98.05 155.22 98.52 155.74
  Q 96.95 155.97 96.95 155.31
  Q 97.01 120.39 97.00 85.42
  Q 97.00 84.84 97.58 84.83
  L 102.25 84.76
  Z"
/>
<path fill="#0b0434" d="
  M 102.25 84.76
  L 597.13 84.76
  Q 597.52 84.76 597.52 85.15
  L 597.64 155.29
  Q 597.64 155.66 597.27 155.66
  L 571.52 155.69
  Q 571.91 154.45 573.19 154.42
  Q 582.91 154.17 593.59 154.26
  A 2.42 2.42 0.0 0 0 596.04 151.83
  L 595.81 88.27
  A 1.45 1.45 0.0 0 0 594.36 86.82
  Q 439.28 86.85 284.06 86.67
  Q 189.19 86.56 119.69 86.85
  Q 109.88 86.89 102.80 86.49
  Q 102.32 86.46 102.08 86.04
  Q 101.64 85.28 102.25 84.76
  Z"
/>
<path fill="#0b0434" d="
  M 416.81 98.49
  L 357.26 98.66
  L 350.66 98.00
  A 0.83 0.83 0.0 0 1 350.74 96.35
  L 416.35 96.30
  Q 416.84 96.30 417.13 96.71
  Q 417.81 97.65 416.81 98.49
  Z"
/>
<path fill="#0b0434" d="
  M 178.46 98.64
  L 164.93 137.48
  Q 164.34 137.60 163.91 137.33
  Q 163.48 137.06 163.65 136.58
  Q 166.40 128.73 169.44 121.01
  C 170.77 117.63 171.26 114.07 172.61 110.88
  Q 175.17 104.83 176.51 100.26
  Q 176.92 98.85 178.46 98.64
  Z"
/>
<path fill="#0b0434" d="
  M 438.88 100.22
  L 438.87 155.40
  Q 438.87 155.75 438.52 155.75
  L 394.00 155.77
  Q 393.49 155.77 393.49 155.25
  L 393.51 122.29
  Q 393.51 121.82 393.95 121.64
  Q 394.77 121.32 395.67 121.72
  L 395.41 153.56
  A 0.82 0.82 0.0 0 0 396.25 154.38
  Q 413.81 154.13 431.50 154.26
  Q 433.85 154.28 436.14 153.78
  Q 436.69 153.66 436.80 153.12
  Q 437.01 152.11 437.01 150.50
  Q 436.97 126.50 436.98 102.50
  Q 436.98 100.37 438.88 100.22
  Z"
/>
<path fill="#1c0c59" d="
  M 297.74 121.78
  Q 296.82 123.19 298.68 123.93
  A 0.88 0.88 0.0 0 1 299.24 124.75
  L 299.39 151.51
  A 2.43 2.42 -0.5 0 1 296.99 153.94
  L 258.46 154.27
  Q 257.19 154.28 257.19 153.01
  C 257.21 144.58 256.84 136.11 257.50 128.23
  Q 257.76 125.14 255.54 124.09
  Q 255.20 123.03 255.32 122.37
  A 0.72 0.72 0.0 0 1 256.03 121.78
  L 297.74 121.78
  Z"
/>
<path fill="#0b0434" d="
  M 297.74 121.78
  L 300.63 121.82
  Q 301.24 121.83 301.25 122.45
  L 301.37 154.92
  Q 301.51 156.25 300.71 155.91
  L 255.76 155.86
  Q 255.52 155.86 255.52 155.62
  L 255.54 124.09
  Q 257.76 125.14 257.50 128.23
  C 256.84 136.11 257.21 144.58 257.19 153.01
  Q 257.19 154.28 258.46 154.27
  L 296.99 153.94
  A 2.43 2.42 -0.5 0 0 299.39 151.51
  L 299.24 124.75
  A 0.88 0.88 0.0 0 0 298.68 123.93
  Q 296.82 123.19 297.74 121.78
  Z"
/>
<path fill="#0b0434" d="
  M 546.27 155.50
  A 0.26 0.26 0.0 0 1 546.01 155.76
  L 500.99 155.76
  A 0.26 0.26 0.0 0 1 500.73 155.50
  L 500.73 122.26
  A 0.26 0.26 0.0 0 1 500.99 122.00
  L 546.01 122.00
  A 0.26 0.26 0.0 0 1 546.27 122.26
  L 546.27 155.50
  Z
  M 544.4566 125.7134
  A 1.69 1.69 0.0 0 0 542.7637 124.0263
  L 504.1437 124.0937
  A 1.69 1.69 0.0 0 0 502.4567 125.7867
  L 502.5034 152.5266
  A 1.69 1.69 0.0 0 0 504.1963 154.2137
  L 542.8163 154.1463
  A 1.69 1.69 0.0 0 0 544.5033 152.4533
  L 544.4566 125.7134
  Z"
/>
<path fill="#0b0434" d="
  M 125.01 123.02
  L 124.87 155.21
  Q 124.86 155.77 124.30 155.77
  L 98.52 155.74
  Q 98.05 155.22 98.42 154.67
  Q 98.70 154.25 99.22 154.25
  L 120.10 154.25
  Q 123.27 154.25 123.26 151.08
  L 123.20 122.95
  A 0.80 0.79 27.7 0 1 124.65 122.50
  L 125.01 123.02
  Z"
/>
<rect fill="#1c0c59" x="-21.00" y="-15.06" transform="translate(523.48,139.12) rotate(-0.1)" width="42.00" height="30.12" rx="1.69"/>
<path fill="#010003" d="
  M 127.28 156.58
  L 127.17 209.37
  A 1.76 1.76 0.0 0 0 128.88 211.13
  L 145.20 211.61
  Q 145.68 211.62 146.05 211.33
  L 147.81 209.96
  L 147.69 212.64
  Q 147.67 213.25 147.06 213.25
  L 126.04 213.25
  Q 125.61 213.25 125.62 212.82
  C 125.81 194.41 126.70 175.12 125.41 156.81
  Q 125.39 156.41 125.80 156.44
  L 127.28 156.58
  Z"
/>
<path fill="#1c0c59" d="
  M 147.81 209.96
  L 146.05 211.33
  Q 145.68 211.62 145.20 211.61
  L 128.88 211.13
  A 1.76 1.76 0.0 0 1 127.17 209.37
  L 127.28 156.58
  Q 154.34 156.28 180.39 156.22
  C 184.30 156.21 191.41 156.66 197.24 156.27
  Q 199.13 156.14 201.21 156.75
  Q 201.74 156.91 201.95 157.42
  L 224.07 212.66
  Q 224.30 213.25 223.67 213.25
  L 202.76 213.25
  A 1.18 1.16 -11.3 0 1 201.68 212.54
  L 183.02 168.17
  A 1.19 1.18 -10.9 0 0 181.94 167.45
  L 148.40 167.25
  Q 148.00 167.25 148.00 167.65
  L 147.81 209.96
  Z"
/>
<path fill="#010003" d="
  M 441.53 213.20
  Q 441.35 212.36 441.58 211.88
  Q 441.79 211.47 442.60 211.40
  Q 450.48 210.75 457.51 211.06
  A 1.77 1.77 0.0 0 0 459.36 209.25
  Q 458.72 184.56 459.59 159.86
  A 2.01 2.01 0.0 0 0 457.60 157.78
  L 442.33 157.60
  A 0.96 0.95 -85.5 0 0 441.38 158.42
  L 440.99 161.07
  Q 440.93 161.52 440.47 161.51
  L 439.70 161.49
  L 439.77 156.98
  Q 439.77 156.52 440.24 156.52
  L 461.17 156.46
  A 0.46 0.46 0.0 0 1 461.63 156.92
  L 461.41 212.63
  Q 461.41 213.19 460.85 213.19
  L 441.53 213.20
  Z"
/>
<path fill="#010003" d="
  M 500.21 186.24
  Q 499.13 186.41 499.13 186.00
  Q 498.88 174.14 498.67 162.19
  Q 498.66 161.57 498.04 161.47
  Q 496.53 161.23 495.81 159.83
  A 1.03 1.02 77.0 0 0 494.91 159.26
  C 491.99 159.21 489.46 157.99 486.82 157.97
  Q 483.61 157.93 480.54 158.27
  A 0.99 0.98 -3.5 0 0 479.66 159.26
  Q 480.02 179.37 480.01 199.72
  C 480.01 202.75 479.20 207.00 479.58 210.80
  Q 479.64 211.33 480.17 211.34
  C 504.29 211.88 528.42 211.02 552.54 211.36
  C 561.41 211.49 567.17 210.79 567.20 200.55
  Q 567.25 179.65 567.25 160.13
  Q 567.25 157.59 564.71 157.69
  C 559.96 157.90 555.17 158.22 550.61 158.07
  Q 548.06 157.98 548.22 160.47
  Q 548.58 165.97 547.24 171.22
  L 547.06 158.15
  A 1.62 1.62 0.0 0 1 548.68 156.50
  L 568.71 156.50
  Q 569.11 156.50 569.10 156.90
  Q 568.54 176.20 568.76 195.58
  C 568.88 205.89 566.86 213.07 555.06 213.15
  Q 516.70 213.40 478.34 213.19
  Q 477.84 213.19 477.86 212.69
  Q 478.67 184.74 477.87 156.80
  Q 477.86 156.44 478.21 156.45
  L 499.47 156.53
  A 0.73 0.73 0.0 0 1 500.20 157.26
  L 500.21 186.24
  Z"
/>
<path fill="#010003" d="
  M 392.8390 212.9607
  A 0.27 0.27 0.0 0 1 392.5695 213.2312
  L 371.0695 213.2687
  A 0.27 0.27 0.0 0 1 370.7991 212.9992
  L 370.7010 156.7993
  A 0.27 0.27 0.0 0 1 370.9705 156.5288
  L 392.4705 156.4913
  A 0.27 0.27 0.0 0 1 392.7409 156.7608
  L 392.8390 212.9607
  Z
  M 385.47 158.11
  A 3.37 3.37 0.0 0 0 383.48 157.70
  C 380.31 158.02 375.19 156.22 372.36 158.66
  A 0.88 0.87 69.7 0 0 372.06 159.32
  L 372.10 211.01
  Q 372.10 211.42 372.51 211.42
  L 389.67 211.70
  A 1.86 1.85 -89.6 0 0 391.56 209.83
  L 391.19 159.07
  A 0.86 0.86 0.0 0 0 389.96 158.30
  Q 387.71 159.36 385.47 158.11
  Z"
/>
<path fill="#1c0c59" d="
  M 385.47 158.11
  Q 387.71 159.36 389.96 158.30
  A 0.86 0.86 0.0 0 1 391.19 159.07
  L 391.56 209.83
  A 1.86 1.85 -89.6 0 1 389.67 211.70
  L 372.51 211.42
  Q 372.10 211.42 372.10 211.01
  L 372.06 159.32
  A 0.88 0.87 69.7 0 1 372.36 158.66
  C 375.19 156.22 380.31 158.02 383.48 157.70
  A 3.37 3.37 0.0 0 1 385.47 158.11
  Z"
/>
<path fill="#1c0c59" d="
  M 441.53 213.20
  Q 440.71 213.38 440.13 213.24
  Q 439.64 213.12 439.64 212.63
  L 439.70 161.49
  L 440.47 161.51
  Q 440.93 161.52 440.99 161.07
  L 441.38 158.42
  A 0.96 0.95 -85.5 0 1 442.33 157.60
  L 457.60 157.78
  A 2.01 2.01 0.0 0 1 459.59 159.86
  Q 458.72 184.56 459.36 209.25
  A 1.77 1.77 0.0 0 1 457.51 211.06
  Q 450.48 210.75 442.60 211.40
  Q 441.79 211.47 441.58 211.88
  Q 441.35 212.36 441.53 213.20
  Z"
/>
<path fill="#1c0c59" d="
  M 500.21 186.24
  L 500.24 190.19
  A 0.85 0.85 0.0 0 0 501.09 191.03
  C 516.26 190.88 531.38 191.66 546.41 190.83
  Q 546.93 190.80 546.94 190.28
  L 547.24 171.22
  Q 548.58 165.97 548.22 160.47
  Q 548.06 157.98 550.61 158.07
  C 555.17 158.22 559.96 157.90 564.71 157.69
  Q 567.25 157.59 567.25 160.13
  Q 567.25 179.65 567.20 200.55
  C 567.17 210.79 561.41 211.49 552.54 211.36
  C 528.42 211.02 504.29 211.88 480.17 211.34
  Q 479.64 211.33 479.58 210.80
  C 479.20 207.00 480.01 202.75 480.01 199.72
  Q 480.02 179.37 479.66 159.26
  A 0.99 0.98 -3.5 0 1 480.54 158.27
  Q 483.61 157.93 486.82 157.97
  C 489.46 157.99 491.99 159.21 494.91 159.26
  A 1.03 1.02 77.0 0 1 495.81 159.83
  Q 496.53 161.23 498.04 161.47
  Q 498.66 161.57 498.67 162.19
  Q 498.88 174.14 499.13 186.00
  Q 499.13 186.41 500.21 186.24
  Z"
/>
<path fill="#010003" d="
  M 323.77 172.23
  Q 323.79 186.14 323.69 200.00
  C 323.62 209.48 317.83 212.75 309.19 212.93
  Q 280.22 213.50 251.25 213.24
  Q 247.63 213.21 243.98 212.79
  L 244.01 211.46
  A 0.43 0.43 0.0 0 1 244.44 211.04
  Q 278.75 211.43 310.99 211.20
  C 315.04 211.17 319.19 209.87 320.78 205.74
  Q 322.20 202.08 322.21 200.19
  Q 322.27 187.12 322.26 174.07
  Q 322.26 172.56 323.77 172.23
  Z"
/>
<path fill="#010003" d="
  M 316.01 252.02
  C 314.02 257.99 305.77 257.37 301.78 254.07
  Q 301.22 253.60 301.69 253.05
  L 302.35 252.29
  Q 302.80 251.76 303.32 252.23
  C 310.58 258.83 319.05 249.52 310.02 246.51
  Q 306.18 245.24 303.14 242.57
  A 1.45 1.42 -75.0 0 1 302.67 241.74
  C 301.06 232.71 313.42 232.13 315.21 236.65
  A 0.77 0.77 0.0 0 1 314.08 237.58
  C 310.94 235.61 304.59 233.84 305.00 240.27
  Q 305.07 241.42 306.11 241.93
  C 309.89 243.75 317.99 246.08 316.01 252.02
  Z"
/>
<path fill="#010003" d="
  M 346.0697 256.7296
  A 11.49 9.43 90.5 0 1 336.7404 245.1577
  A 11.49 9.43 90.5 0 1 346.2703 233.7504
  A 11.49 9.43 90.5 0 1 355.5996 245.3223
  A 11.49 9.43 90.5 0 1 346.0697 256.7296
  Z
  M 346.1559 254.6398
  A 9.44 6.88 89.6 0 0 352.9698 245.1520
  A 9.44 6.88 89.6 0 0 346.0241 235.7602
  A 9.44 6.88 89.6 0 0 339.2102 245.2480
  A 9.44 6.88 89.6 0 0 346.1559 254.6398
  Z"
/>
<path fill="#010003" d="
  M 383.39 254.29
  L 392.93 254.38
  Q 393.51 254.38 393.64 254.95
  L 393.77 255.54
  Q 393.93 256.25 393.20 256.25
  L 381.75 256.25
  A 1.00 1.00 0.0 0 1 380.75 255.25
  L 380.75 234.99
  Q 380.75 234.39 381.36 234.40
  Q 386.91 234.56 392.23 234.36
  Q 393.73 234.31 393.66 235.61
  A 0.68 0.68 0.0 0 1 392.98 236.25
  L 383.07 236.25
  Q 382.64 236.25 382.65 236.68
  L 382.79 242.86
  A 0.66 0.65 90.0 0 0 383.42 243.50
  L 391.62 243.84
  Q 391.95 243.85 391.97 244.18
  L 392.00 244.86
  Q 392.04 245.50 391.39 245.50
  L 383.37 245.50
  Q 382.75 245.50 382.75 246.12
  L 382.75 253.64
  Q 382.75 254.28 383.39 254.29
  Z"
/>
<path fill="#010003" d="
  M 324.75 236.25
  L 319.18 236.25
  Q 318.57 236.25 318.39 235.66
  L 318.21 235.10
  Q 318.01 234.48 318.67 234.48
  L 334.25 234.54
  A 0.81 0.80 -45.5 0 1 334.26 236.15
  L 328.34 236.30
  A 0.86 0.86 0.0 0 0 327.50 237.16
  L 327.50 256.00
  Q 327.50 256.50 327.00 256.50
  L 325.88 256.50
  Q 325.25 256.50 325.25 255.88
  L 325.25 236.75
  Q 325.25 236.25 324.75 236.25
  Z"
/>
<path fill="#010003" d="
  M 363.14 246.98
  L 363.04 255.99
  A 0.52 0.52 0.0 0 1 362.42 256.50
  L 361.42 256.30
  Q 360.92 256.20 360.91 255.68
  L 360.71 234.94
  Q 360.70 234.54 361.10 234.53
  C 366.46 234.44 374.08 233.09 375.05 239.25
  Q 375.90 244.58 370.48 246.66
  Q 370.03 246.83 370.29 247.24
  L 375.45 255.35
  A 0.58 0.58 0.0 0 1 374.96 256.25
  L 373.70 256.25
  Q 373.05 256.25 372.73 255.70
  L 367.87 247.32
  Q 367.56 246.77 366.92 246.71
  L 363.78 246.41
  Q 363.15 246.35 363.14 246.98
  Z
  M 362.99 236.91
  L 363.01 244.05
  A 0.89 0.89 0.0 0 0 363.91 244.93
  L 367.45 244.92
  A 5.31 4.19 -0.2 0 0 372.74 240.71
  L 372.74 240.17
  A 5.31 4.19 -0.2 0 0 367.41 236.00
  L 363.87 236.01
  A 0.89 0.89 0.0 0 0 362.99 236.91
  Z"
/>
<ellipse fill="#eeece0" cx="0.00" cy="0.00" transform="translate(346.09,245.20) rotate(89.6)" rx="9.44" ry="6.88"/>
<path fill="#eeece0" d="
  M 362.99 236.91
  A 0.89 0.89 0.0 0 1 363.87 236.01
  L 367.41 236.00
  A 5.31 4.19 -0.2 0 1 372.74 240.17
  L 372.74 240.71
  A 5.31 4.19 -0.2 0 1 367.45 244.92
  L 363.91 244.93
  A 0.89 0.89 0.0 0 1 363.01 244.05
  L 362.99 236.91
  Z"
/>
<path fill="#010003" d="
  M 145.20 244.43
  Q 217.33 244.07 289.47 244.31
  C 290.18 244.31 290.84 243.90 291.59 243.98
  A 1.22 1.22 0.0 0 1 292.03 246.26
  C 291.06 246.79 289.45 246.26 288.58 246.26
  Q 224.92 246.25 161.25 246.25
  C 155.93 246.25 147.37 245.79 140.12 246.29
  A 0.89 0.89 0.0 0 1 139.63 244.63
  C 141.11 243.80 143.86 244.44 145.20 244.43
  Z"
/>
<path fill="#010003" d="
  M 398.68 245.11
  A 0.17 0.16 -54.2 0 1 398.63 244.79
  Q 398.87 244.70 399.08 244.54
  Q 399.32 244.35 399.62 244.35
  L 554.75 244.21
  Q 555.32 244.21 555.52 244.74
  L 555.77 245.41
  A 0.63 0.63 0.0 0 1 555.18 246.25
  Q 491.29 246.25 427.40 246.25
  C 420.89 246.25 411.68 245.72 403.79 245.99
  C 401.98 246.05 400.64 245.16 398.68 245.11
  Z"
/>
</svg>
